<?xml version="1.0" encoding="UTF-8"?>
<svg version="1.1" xmlns="http://www.w3.org/2000/svg" width="420" height="115">
<path d="M0 0 C0.87720703 -0.020625 1.75441406 -0.04125 2.65820312 -0.0625 C9.35582985 -0.10257555 14.45099503 0.66141422 19.5 5.4375 C23.16894751 11.55241251 23.81221906 18.24733518 23.1875 25.25 C22.8575 25.91 22.5275 26.57 22.1875 27.25 C23.57775391 27.23259766 23.57775391 27.23259766 24.99609375 27.21484375 C26.19363281 27.20582031 27.39117187 27.19679688 28.625 27.1875 C29.81996094 27.17589844 31.01492187 27.16429688 32.24609375 27.15234375 C35.1875 27.25 35.1875 27.25 36.1875 28.25 C36.34490605 29.95563778 36.43843392 31.66727244 36.50390625 33.37890625 C36.54201416 34.31033447 36.58012207 35.2417627 36.61938477 36.20141602 C36.68403931 37.98890259 36.68403931 37.98890259 36.75 39.8125 C36.9665625 45.4740625 36.9665625 45.4740625 37.1875 51.25 C50.5525 51.745 50.5525 51.745 64.1875 52.25 C65.13856223 56.05424893 65.46244706 59.37698339 65.6875 63.28125 C65.72810547 63.95418091 65.76871094 64.62711182 65.81054688 65.32043457 C65.98344706 68.18775145 66.14755893 71.05555592 66.3125 73.92333984 C66.43446538 76.02200199 66.56088086 78.12036432 66.6875 80.21875 C66.79578125 82.09723633 66.79578125 82.09723633 66.90625 84.01367188 C67.12965813 86.58441683 67.49784362 88.78396666 68.1875 91.25 C68.27667199 92.81050976 68.3176671 94.37445308 68.3125 95.9375 C68.31636719 97.11892578 68.31636719 97.11892578 68.3203125 98.32421875 C68.1875 100.25 68.1875 100.25 67.1875 101.25 C65.82141674 101.34535213 64.45044545 101.3718867 63.08103943 101.37025452 C62.19617859 101.37162918 61.31131775 101.37300385 60.39964294 101.37442017 C58.93229454 101.36902725 58.93229454 101.36902725 57.43530273 101.36352539 C56.4110318 101.36367142 55.38676086 101.36381744 54.33145142 101.3639679 C50.92797771 101.36326828 47.52455796 101.35547363 44.12109375 101.34765625 C41.76839732 101.34579224 39.4157005 101.34436826 37.06300354 101.34336853 C30.85693295 101.33954199 24.6508856 101.32971055 18.44482422 101.31866455 C12.11751622 101.30845334 5.79020448 101.30387154 -0.53710938 101.29882812 C-12.96224982 101.2880884 -25.38737298 101.27101036 -37.8125 101.25 C-37.85146114 90.40943152 -37.87183695 79.58700201 -37.41015625 68.75390625 C-37.36813583 67.70645737 -37.32611542 66.65900848 -37.28282166 65.57981873 C-37.1948546 63.41340079 -37.10490836 61.24706228 -37.01293945 59.08081055 C-36.87296911 55.76438041 -36.74180429 52.44767526 -36.61132812 49.13085938 C-36.52395448 47.00518702 -36.43608296 44.87953506 -36.34765625 42.75390625 C-36.30906998 41.77063858 -36.2704837 40.78737091 -36.23072815 39.77430725 C-36.17077919 38.40017921 -36.17077919 38.40017921 -36.10961914 36.99829102 C-36.07630997 36.19923843 -36.04300079 35.40018585 -36.00868225 34.57691956 C-35.8125 32.25 -35.8125 32.25 -34.8125 27.25 C-30.5225 27.25 -26.2325 27.25 -21.8125 27.25 C-22.1425 26.59 -22.4725 25.93 -22.8125 25.25 C-22.905261 10.77928338 -22.905261 10.77928338 -17.8125 5.25 C-17.1525 4.486875 -16.4925 3.72375 -15.8125 2.9375 C-11.40199305 -0.78386524 -5.48328294 0.0318102 0 0 Z M-11.8125 7.25 C-15.67291451 11.72808083 -15.90334928 15.33175476 -15.75 20.99609375 C-15.81200143 23.23202025 -16.1883017 25.10919489 -16.8125 27.25 C-15.1625 27.25 -13.5125 27.25 -11.8125 27.25 C-11.874375 25.64125 -11.874375 25.64125 -11.9375 24 C-11.95793538 18.31896377 -10.85168231 12.81704807 -9.8125 7.25 C-10.4725 7.25 -11.1325 7.25 -11.8125 7.25 Z M-2.375 8.4375 C-5.62839793 12.53961043 -6.05008812 16.43974033 -5.9375 21.5625 C-5.89625 23.439375 -5.855 25.31625 -5.8125 27.25 C-1.5225 27.25 2.7675 27.25 7.1875 27.25 C7.32173232 16.31247101 7.32173232 16.31247101 2.1875 7.25 C-0.74150887 6.94745837 -0.74150887 6.94745837 -2.375 8.4375 Z M12.1875 10.25 C12.1875 15.86 12.1875 21.47 12.1875 27.25 C13.8375 27.25 15.4875 27.25 17.1875 27.25 C17.26910748 25.35489301 17.32696459 23.45875496 17.375 21.5625 C17.42720703 19.97888672 17.42720703 19.97888672 17.48046875 18.36328125 C17.15159165 14.86841396 16.31043836 13.02061447 14.1875 10.25 C13.5275 10.25 12.8675 10.25 12.1875 10.25 Z " fill="#EA423F" transform="translate(45.8125,9.75)"/>
<path d="M0 0 C1.75171509 0.07069702 1.75171509 0.07069702 3.53881836 0.14282227 C4.79887695 0.19116211 6.05893555 0.23950195 7.35717773 0.28930664 C8.69767719 0.34583669 10.03817193 0.40247878 11.37866211 0.45922852 C12.72304457 0.51243456 14.06744554 0.56517504 15.41186523 0.61743164 C18.71350868 0.74760396 22.01488653 0.88258462 25.31616211 1.02172852 C26.41399236 4.67658839 26.59714523 8.25342674 26.81616211 12.05297852 C26.85676758 12.72590942 26.89737305 13.39884033 26.93920898 14.09216309 C27.11210917 16.95947997 27.27622104 19.82728443 27.44116211 22.69506836 C27.56312749 24.7937305 27.68954297 26.89209284 27.81616211 28.99047852 C27.92444336 30.86896484 27.92444336 30.86896484 28.03491211 32.78540039 C28.25832024 35.35614535 28.62650573 37.55569517 29.31616211 40.02172852 C29.4053341 41.58223828 29.44632921 43.1461816 29.44116211 44.70922852 C29.4450293 45.8906543 29.4450293 45.8906543 29.44897461 47.09594727 C29.31616211 49.02172852 29.31616211 49.02172852 28.31616211 50.02172852 C26.38309713 50.11568909 24.44657373 50.13916369 22.51123047 50.13525391 C20.64941383 50.13514061 20.64941383 50.13514061 18.74998474 50.13502502 C17.38532471 50.12991762 16.02066509 50.12470161 14.65600586 50.11938477 C13.26738028 50.11752052 11.87875404 50.11609665 10.49012756 50.11509705 C6.82895096 50.11127238 3.16781381 50.10144255 -0.49334717 50.09039307 C-4.22676052 50.08017784 -7.96018023 50.07559919 -11.69360352 50.07055664 C-19.02369966 50.05982022 -26.35376325 50.04274443 -33.68383789 50.02172852 C-33.55251465 48.90942871 -33.42119141 47.79712891 -33.28588867 46.65112305 C-32.09856726 36.40660323 -31.19118535 26.19051592 -30.55883789 15.89672852 C-30.47198447 14.53342261 -30.38474542 13.17014121 -30.29711914 11.80688477 C-30.08893823 8.5453838 -29.88452481 5.28369764 -29.68383789 2.02172852 C-28.90145752 1.99667236 -28.11907715 1.97161621 -27.31298828 1.94580078 C-23.7905884 1.83023063 -20.26848229 1.70732902 -16.74633789 1.58422852 C-15.51463867 1.54491211 -14.28293945 1.5055957 -13.01391602 1.46508789 C-11.25917969 1.40224609 -11.25917969 1.40224609 -9.46899414 1.33813477 C-8.38497314 1.30147705 -7.30095215 1.26481934 -6.18408203 1.22705078 C-3.15781216 0.97853082 -3.104514 0.02513434 0 0 Z " fill="#F2AC34" transform="translate(84.683837890625,60.978271484375)"/>
<path d="M0 0 C28.475 0 28.475 0 34.9375 5.5 C38.78889518 10.16835779 38.5055988 15.20367086 38 21 C36.45414364 25.25110499 34.84918355 27.61085159 31 30 C32.38126792 34.60422642 34.27905704 38.56012656 36.625 42.75 C40 48.78367347 40 48.78367347 40 51 C35.71 51 31.42 51 27 51 C25.66180502 48.3773768 24.3292849 45.75213401 23 43.125 C22.6184375 42.37863281 22.236875 41.63226563 21.84375 40.86328125 C21.4828125 40.14785156 21.121875 39.43242188 20.75 38.6953125 C20.41484375 38.03547363 20.0796875 37.37563477 19.734375 36.69580078 C19 35 19 35 19 33 C16.36 33 13.72 33 11 33 C11 38.94 11 44.88 11 51 C7.37 51 3.74 51 0 51 C0 34.17 0 17.34 0 0 Z M11 10 C11 14.62 11 19.24 11 24 C17.6707116 24.35203054 17.6707116 24.35203054 24.0625 22.875 C26.69342077 20.32894764 26.92612155 18.62004396 27 15 C26.03394425 12.25045672 25.61984486 11.30992243 23 10 C20.95944995 9.92934383 18.91665743 9.91578024 16.875 9.9375 C14.93625 9.958125 12.9975 9.97875 11 10 Z " fill="#000000" transform="translate(374,20)"/>
<path d="M0 0 C4.09313187 4.53563261 5.13189968 6.93261474 5 13 C1.37 13 -2.26 13 -6 13 C-6.66 11.35 -7.32 9.7 -8 8 C-10.22890995 6.88554502 -11.53055106 6.83519714 -14 6.8125 C-14.70125 6.79832031 -15.4025 6.78414062 -16.125 6.76953125 C-18.24524938 6.83487677 -18.24524938 6.83487677 -20 9 C-20.24503243 11.522751 -20.24503243 11.522751 -19 14 C-16.54524205 15.28640213 -14.41101605 16.19797001 -11.8125 17.0625 C-5.850868 19.1388928 -0.21925624 21.16853514 3.8125 26.3125 C5.93827052 31.12345432 6.51773434 35.1569315 4.9375 40.1875 C3.2283275 44.23306427 0.9340842 45.99281419 -3 48 C-10.26286546 50.30592057 -18.64058447 50.07447509 -25.5625 46.9375 C-30.13610066 44.31232759 -32.07762306 41.89332312 -34 37 C-34 35.35 -34 33.7 -34 32 C-30.37 32 -26.74 32 -23 32 C-22.7525 32.969375 -22.505 33.93875 -22.25 34.9375 C-21.36969431 38.03954701 -21.36969431 38.03954701 -19.3125 38.875 C-12.81323722 39.45671297 -12.81323722 39.45671297 -7 37 C-6.74969023 34.41619823 -6.74969023 34.41619823 -7 32 C-11.33871455 29.75029616 -15.61449963 27.72773027 -20.1875 26 C-24.67209684 24.2364719 -28.52078594 22.44437501 -31.1015625 18.1796875 C-32.73760401 14.21050854 -32.52531233 10.20914819 -32 6 C-30.07121678 1.75667691 -28.68758035 0.36254236 -24.5625 -1.8125 C-16.24126498 -4.58624501 -7.62508113 -5.08338742 0 0 Z " fill="#010101" transform="translate(154,23)"/>
<path d="M0 0 C3.63 0 7.26 0 11 0 C15.01862683 9.45107265 18.72831379 18.99785934 22.35864258 28.60351562 C23.32439463 31.15644298 24.29586239 33.70715 25.26757812 36.2578125 C25.8831571 37.88268199 26.49840414 39.50767728 27.11328125 41.1328125 C27.54910271 42.27485641 27.54910271 42.27485641 27.99372864 43.43997192 C30 48.77088111 30 48.77088111 30 51 C26.04 51 22.08 51 18 51 C15 44.375 15 44.375 15 41 C9.06 41 3.12 41 -3 41 C-3.99 44.3 -4.98 47.6 -6 51 C-9.96 51 -13.92 51 -18 51 C-16.03277819 44.25298222 -13.86333253 37.64489016 -11.42578125 31.0546875 C-11.09708542 30.15879913 -10.76838959 29.26291077 -10.42973328 28.33987427 C-9.39341188 25.51722733 -8.35303287 22.69609677 -7.3125 19.875 C-6.60324512 17.94541191 -5.89425832 16.01572525 -5.18554688 14.0859375 C-3.46012419 9.38948141 -1.73106433 4.69437941 0 0 Z M5 16 C3.35 21.28 1.7 26.56 0 32 C3.63 32 7.26 32 11 32 C9.85388265 26.26941324 8.47605477 21.28975338 6 16 C5.67 16 5.34 16 5 16 Z " fill="#000000" transform="translate(340,20)"/>
<path d="M0 0 C11.22 0 22.44 0 34 0 C34 2.97 34 5.94 34 9 C33 10 33 10 30.86694336 10.11352539 C29.95050049 10.10828857 29.03405762 10.10305176 28.08984375 10.09765625 C27.10048828 10.09443359 26.11113281 10.09121094 25.09179688 10.08789062 C24.05087891 10.07951172 23.00996094 10.07113281 21.9375 10.0625 C20.89271484 10.05798828 19.84792969 10.05347656 18.77148438 10.04882812 C16.18096546 10.03699927 13.59047578 10.01906319 11 10 C11 13.63 11 17.26 11 21 C17.6 21 24.2 21 31 21 C31 23.97 31 26.94 31 30 C24.4 30 17.8 30 11 30 C11 33.96 11 37.92 11 42 C18.59 42 26.18 42 34 42 C34 44.97 34 47.94 34 51 C22.78 51 11.56 51 0 51 C0 34.17 0 17.34 0 0 Z " fill="#000000" transform="translate(210,20)"/>
<path d="M0 0 C13.86 0 27.72 0 42 0 C42 3.3 42 6.6 42 10 C37.05 10 32.1 10 27 10 C27 23.53 27 37.06 27 51 C23.37 51 19.74 51 16 51 C16 37.47 16 23.94 16 10 C11.05 10 6.1 10 1 10 C0.67 9.67 0.34 9.34 0 9 C0 6.03 0 3.06 0 0 Z " fill="#000000" transform="translate(162,20)"/>
<path d="M0 0 C3.96 0 7.92 0 12 0 C12 13.86 12 27.72 12 42 C19.26 42 26.52 42 34 42 C34 44.97 34 47.94 34 51 C22.78 51 11.56 51 0 51 C0 34.17 0 17.34 0 0 Z " fill="#000000" transform="translate(249,20)"/>
<path d="M0 0 C3.63 0 7.26 0 11 0 C11 13.86 11 27.72 11 42 C18.26 42 25.52 42 33 42 C33 44.97 33 47.94 33 51 C22.11 51 11.22 51 0 51 C0 34.17 0 17.34 0 0 Z " fill="#000000" transform="translate(288,20)"/>
<path d="M0 0 C0.87720703 -0.020625 1.75441406 -0.04125 2.65820312 -0.0625 C9.35582985 -0.10257555 14.45099503 0.66141422 19.5 5.4375 C23.16894751 11.55241251 23.81221906 18.24733518 23.1875 25.25 C22.8575 25.91 22.5275 26.57 22.1875 27.25 C20.5375 27.25 18.8875 27.25 17.1875 27.25 C15.6545146 24.1840292 16.22169351 21.13361398 16.34765625 17.7578125 C16.17478919 15.05096732 15.64756039 13.51894402 14.1875 11.25 C13.5275 10.92 12.8675 10.59 12.1875 10.25 C12.6825 11.24 12.6825 11.24 13.1875 12.25 C13.28382897 14.06041793 13.31731533 15.87452753 13.3125 17.6875 C13.31636719 19.13962891 13.31636719 19.13962891 13.3203125 20.62109375 C13.1875 23.25 13.1875 23.25 12.1875 26.25 C10.2075 26.25 8.2275 26.25 6.1875 26.25 C6.15011719 25.36957031 6.11273438 24.48914063 6.07421875 23.58203125 C6.00847656 22.42058594 5.94273438 21.25914063 5.875 20.0625 C5.81699219 18.91394531 5.75898437 17.76539062 5.69921875 16.58203125 C5.16495494 13.10319896 4.1927674 11.10468362 2.1875 8.25 C0.26440578 8.28955898 0.26440578 8.28955898 -1.8125 9.25 C-5.47455361 14.40400138 -5.49711969 20.13814707 -5.8125 26.25 C-7.7925 26.58 -9.7725 26.91 -11.8125 27.25 C-13.34866498 19.98812918 -11.89229208 14.30014265 -9.8125 7.25 C-12.33838702 9.61292656 -13.70070837 10.91462511 -14.8125 14.25 C-14.80704975 15.72974337 -14.76226543 17.20963659 -14.6875 18.6875 C-14.65822253 21.68356059 -14.72611652 23.07291387 -16.0625 25.8125 C-17.8125 27.25 -17.8125 27.25 -21.8125 27.25 C-24.1078275 22.659345 -22.54209961 16.17760354 -21.8125 11.25 C-20.77412509 8.5700038 -19.80893205 7.41755479 -17.8125 5.25 C-17.1525 4.486875 -16.4925 3.72375 -15.8125 2.9375 C-11.40199305 -0.78386524 -5.48328294 0.0318102 0 0 Z " fill="#E9EDF1" transform="translate(45.8125,9.75)"/>
<path d="M0 0 C1.64574566 -0.02688151 3.29161413 -0.04634123 4.9375 -0.0625 C5.85402344 -0.07410156 6.77054688 -0.08570313 7.71484375 -0.09765625 C10 0 10 0 11 1 C11.09946453 2.76859193 11.13080217 4.54111451 11.1328125 6.3125 C11.13474609 7.92511719 11.13474609 7.92511719 11.13671875 9.5703125 C11.13285156 10.70210937 11.12898438 11.83390625 11.125 13 C11.13080078 14.69769531 11.13080078 14.69769531 11.13671875 16.4296875 C11.13542969 17.50476563 11.13414063 18.57984375 11.1328125 19.6875 C11.13168457 20.68136719 11.13055664 21.67523438 11.12939453 22.69921875 C11 25 11 25 10 26 C7.83519203 26.0989294 5.66706215 26.129711 3.5 26.125 C2.3140625 26.12757812 1.128125 26.13015625 -0.09375 26.1328125 C-3 26 -3 26 -4 25 C-5.03361631 17.3691043 -5.13619034 9.6871881 -5 2 C-3.35 2 -1.7 2 0 2 C0 1.34 0 0.68 0 0 Z " fill="#D13531" transform="translate(71,37)"/>
<path d="M0 0 C2 2 2 2 2 5 C2.66 5 3.32 5 4 5 C5.62634726 8.25269451 5.18453471 11.804785 5.1875 15.375 C5.19974609 16.14328125 5.21199219 16.9115625 5.22460938 17.703125 C5.24337545 24.93431967 5.24337545 24.93431967 3 28 C1.25 28.625 1.25 28.625 -1 29 C-2.5159375 29.556875 -2.5159375 29.556875 -4.0625 30.125 C-7 31 -7 31 -10 30 C-10.33 30.33 -10.66 30.66 -11 31 C-12.66617115 31.04063832 -14.33388095 31.042721 -16 31 C-16.66 28.69 -17.32 26.38 -18 24 C-18 24.66 -18 25.32 -18 26 C-18.66 26 -19.32 26 -20 26 C-20.33 20.39 -20.66 14.78 -21 9 C-19.68 8.34 -18.36 7.68 -17 7 C-16.67 8.32 -16.34 9.64 -16 11 C-15.34 11 -14.68 11 -14 11 C-14 16.28 -14 21.56 -14 27 C-10.37 26.67 -6.74 26.34 -3 26 C-2.97312959 22.20828653 -2.95322413 18.41676177 -2.9375 14.625 C-2.92912109 13.54476562 -2.92074219 12.46453125 -2.91210938 11.3515625 C-2.90888672 10.3203125 -2.90566406 9.2890625 -2.90234375 8.2265625 C-2.89710693 7.27346191 -2.89187012 6.32036133 -2.88647461 5.33837891 C-2.84357401 2.97675594 -2.84357401 2.97675594 -4 1 C-2.125 0.375 -2.125 0.375 0 0 Z " fill="#EDAE47" transform="translate(83,66)"/>
<path d="M0 0 C5.20867131 4.75574337 6.73364164 9.61910597 7.1484375 16.44140625 C7.24582037 22.50835925 7.24582037 22.50835925 6 25 C4.35 25 2.7 25 1 25 C-0.5329854 21.9340292 0.03419351 18.88361398 0.16015625 15.5078125 C-0.01037161 12.83759569 -0.6472199 11.28115859 -2 9 C-2.99 9 -3.98 9 -5 9 C-5.33 7.02 -5.66 5.04 -6 3 C-7.134375 2.87625 -8.26875 2.7525 -9.4375 2.625 C-10.613125 2.41875 -11.78875 2.2125 -13 2 C-13.33 1.34 -13.66 0.68 -14 0 C-8.85636772 -2.31463452 -5.05552502 -2.35577042 0 0 Z " fill="#DFDDE0" transform="translate(62,12)"/>
<path d="M0 0 C1.75559942 1.75559942 1.13221919 4.03582442 1.13671875 6.37109375 C1.13285156 7.07363281 1.12898438 7.77617188 1.125 8.5 C1.12886719 9.20253906 1.13273437 9.90507813 1.13671875 10.62890625 C1.12661378 15.87338622 1.12661378 15.87338622 0 17 C-1.68608966 17.07205511 -3.37500659 17.08386068 -5.0625 17.0625 C-5.98160156 17.05347656 -6.90070312 17.04445313 -7.84765625 17.03515625 C-8.55792969 17.02355469 -9.26820312 17.01195313 -10 17 C-10.0809723 14.56183415 -10.14046972 12.12635616 -10.1875 9.6875 C-10.21263672 8.99720703 -10.23777344 8.30691406 -10.26367188 7.59570312 C-10.33717911 2.52370373 -10.33717911 2.52370373 -8.71484375 0.00390625 C-5.79551401 -1.70513189 -3.16334734 -0.70296608 0 0 Z " fill="#F9AE31" transform="translate(31,54)"/>
<path d="M0 0 C3.12522772 -0.05378021 6.2495371 -0.09356575 9.375 -0.125 C10.26445312 -0.14175781 11.15390625 -0.15851563 12.0703125 -0.17578125 C12.92109375 -0.18222656 13.771875 -0.18867187 14.6484375 -0.1953125 C15.82672119 -0.21102295 15.82672119 -0.21102295 17.02880859 -0.22705078 C19 0 19 0 21 2 C21.1953125 5.0390625 21.1953125 5.0390625 21.125 8.625 C21.10695312 9.81351563 21.08890625 11.00203125 21.0703125 12.2265625 C21.04710937 13.14179687 21.02390625 14.05703125 21 15 C20.01 15 19.02 15 18 15 C17.67 11.37 17.34 7.74 17 4 C15.68 4.33 14.36 4.66 13 5 C12.67 8.3 12.34 11.6 12 15 C11.01 15 10.02 15 9 15 C8.67 11.37 8.34 7.74 8 4 C6.68 3.67 5.36 3.34 4 3 C3.67 6.96 3.34 10.92 3 15 C2.01 15 1.02 15 0 15 C0 10.05 0 5.1 0 0 Z " fill="#D72A2B" transform="translate(158,93)"/>
<path d="M0 0 C1.32 0 2.64 0 4 0 C5.1721449 2.95619219 6.33677476 5.91528789 7.5 8.875 C7.83386719 9.71675781 8.16773438 10.55851562 8.51171875 11.42578125 C8.98544922 12.63427734 8.98544922 12.63427734 9.46875 13.8671875 C9.90864258 14.98262939 9.90864258 14.98262939 10.35742188 16.12060547 C11 18 11 18 11 20 C9.68 20 8.36 20 7 20 C6.67 18.35 6.34 16.7 6 15 C3.36 15 0.72 15 -2 15 C-2.33 16.65 -2.66 18.3 -3 20 C-4.32 20 -5.64 20 -7 20 C-5.07443364 13.14381674 -2.7527517 6.56747868 0 0 Z M1 7 C0.67 8.65 0.34 10.3 0 12 C1.32 12 2.64 12 4 12 C3.67 10.35 3.34 8.7 3 7 C2.34 7 1.68 7 1 7 Z " fill="#E01C1B" transform="translate(130,88)"/>
<path d="M0 0 C1.64574566 -0.02688151 3.29161413 -0.04634123 4.9375 -0.0625 C5.85402344 -0.07410156 6.77054687 -0.08570313 7.71484375 -0.09765625 C10 0 10 0 11 1 C11.08726223 2.78071246 11.10699041 4.5648314 11.09765625 6.34765625 C11.09443359 7.42724609 11.09121094 8.50683594 11.08789062 9.61914062 C11.07951172 10.75544922 11.07113281 11.89175781 11.0625 13.0625 C11.05798828 14.20267578 11.05347656 15.34285156 11.04882812 16.51757812 C11.03699747 19.34510351 11.0205141 22.1725264 11 25 C9.35 25.33 7.7 25.66 6 26 C5.34 17.75 4.68 9.5 4 1 C2.68 0.67 1.36 0.34 0 0 Z " fill="#C63F39" transform="translate(71,37)"/>
<path d="M0 0 C0.99 0 1.98 0 3 0 C3 6.93 3 13.86 3 21 C-6 22 -6 22 -8.5625 20.625 C-10.61605556 16.87502898 -10.85619129 13.18839525 -10 9 C-8.671875 7.234375 -8.671875 7.234375 -7 6 C-3.8125 5.8125 -3.8125 5.8125 -1 6 C-0.67 4.02 -0.34 2.04 0 0 Z M-5 9 C-7.36692966 11.84826598 -7.36692966 11.84826598 -6.625 15.1875 C-6.41875 16.115625 -6.2125 17.04375 -6 18 C-5.01 18.33 -4.02 18.66 -3 19 C-2.01 18.34 -1.02 17.68 0 17 C0.41666667 14 0.41666667 14 0 11 C-0.66 10.34 -1.32 9.68 -2 9 C-2.99 9 -3.98 9 -5 9 Z " fill="#D52526" transform="translate(152,87)"/>
<path d="M0 0 C10.14938489 -0.48330404 10.14938489 -0.48330404 13.75 1.5625 C15.56353821 5.09889951 15.11167777 7.24808751 14 11 C10.84891918 13.78749457 7.0179289 13.15453573 3 13 C3 15.31 3 17.62 3 20 C2.01 20 1.02 20 0 20 C0 13.4 0 6.8 0 0 Z M3 3 C2.95745644 4.99954746 2.95919217 7.00041636 3 9 C4.05310277 10.27003323 4.05310277 10.27003323 6.4375 10.1875 C9.16734675 10.26839983 9.16734675 10.26839983 11 8 C10.59471099 5.21762345 10.59471099 5.21762345 9 3 C7.00041636 2.95919217 4.99954746 2.95745644 3 3 Z " fill="#D72421" transform="translate(211,88)"/>
<path d="M0 0 C1.90845703 -0.00193359 1.90845703 -0.00193359 3.85546875 -0.00390625 C5.16902344 -0.00003906 6.48257813 0.00382812 7.8359375 0.0078125 C9.12628906 0.00394531 10.41664062 0.00007813 11.74609375 -0.00390625 C19.94676857 0.00435223 28.04557678 0.37288175 36.2109375 1.1328125 C36.2109375 1.7928125 36.2109375 2.4528125 36.2109375 3.1328125 C31.9209375 3.1328125 27.6309375 3.1328125 23.2109375 3.1328125 C23.2109375 5.1128125 23.2109375 7.0928125 23.2109375 9.1328125 C22.2209375 8.8028125 21.2309375 8.4728125 20.2109375 8.1328125 C19.2209375 8.4628125 18.2309375 8.7928125 17.2109375 9.1328125 C16.8809375 7.1528125 16.5509375 5.1728125 16.2109375 3.1328125 C15.40873779 3.14328613 14.60653809 3.15375977 13.7800293 3.16455078 C10.15286378 3.20607017 6.52574822 3.23212593 2.8984375 3.2578125 C1.63580078 3.27457031 0.37316406 3.29132812 -0.92773438 3.30859375 C-2.74047852 3.31826172 -2.74047852 3.31826172 -4.58984375 3.328125 C-5.70528564 3.33859863 -6.82072754 3.34907227 -7.9699707 3.35986328 C-10.7890625 3.1328125 -10.7890625 3.1328125 -13.7890625 1.1328125 C-9.14897594 0.39101743 -4.69736186 0.0046581 0 0 Z " fill="#DE504D" transform="translate(34.7890625,35.8671875)"/>
<path d="M0 0 C3.625 0.3125 3.625 0.3125 5.33984375 1.97265625 C6.93368647 4.87451579 6.9299695 6.77335398 6.8125 10.0625 C6.78542969 11.04734375 6.75835937 12.0321875 6.73046875 13.046875 C6.69566406 13.79453125 6.66085938 14.5421875 6.625 15.3125 C-1.56756018 16.76545405 -1.56756018 16.76545405 -4.9375 14.875 C-5.411875 14.359375 -5.88625 13.84375 -6.375 13.3125 C-6 10.375 -6 10.375 -5.375 7.3125 C-2.66620665 5.95810332 -0.36566732 6.24748549 2.625 6.3125 C2.295 5.6525 1.965 4.9925 1.625 4.3125 C-0.685 4.6425 -2.995 4.9725 -5.375 5.3125 C-4.26456681 0.3948673 -4.26456681 0.3948673 0 0 Z M-2.375 9.3125 C-2.045 10.6325 -1.715 11.9525 -1.375 13.3125 C-0.055 12.6525 1.265 11.9925 2.625 11.3125 C2.625 10.3225 2.625 9.3325 2.625 8.3125 C0.41418149 8.20709074 0.41418149 8.20709074 -2.375 9.3125 Z " fill="#D72123" transform="translate(233.375,92.6875)"/>
<path d="M0 0 C1.875 1.125 1.875 1.125 3 3 C3.1875 6.1875 3.1875 6.1875 3 9 C0.03 9 -2.94 9 -6 9 C-5.01 10.485 -5.01 10.485 -4 12 C-2.02 11.67 -0.04 11.34 2 11 C2 12.32 2 13.64 2 15 C-2.03172323 15.94864076 -4.18404153 16.41665964 -7.9375 14.5 C-10 12 -10 12 -10.4375 8.5 C-10.05046308 5.40370463 -9.75440378 3.53413879 -8 1 C-5.20129973 -0.39935013 -3.09501208 -0.25265405 0 0 Z M-5 3 C-5.33 3.99 -5.66 4.98 -6 6 C-4.02 6 -2.04 6 0 6 C-0.33 5.01 -0.66 4.02 -1 3 C-2.32 3 -3.64 3 -5 3 Z " fill="#DC2222" transform="translate(267,93)"/>
<path d="M0 0 C1.67542976 0.28604898 3.34385343 0.61781233 5 1 C4.65066406 1.59425781 4.30132812 2.18851563 3.94140625 2.80078125 C0.40268647 9.24666458 -0.84668681 14.66884213 -1 22 C-2.98 22.33 -4.96 22.66 -7 23 C-8.09570312 16.97363282 -8.2820974 11.78792819 -6 6 C-3.4375 3 -3.4375 3 -1 1 C-0.67 0.67 -0.34 0.34 0 0 Z " fill="#DFE1E2" transform="translate(41,14)"/>
<path d="M0 0 C0.33 0 0.66 0 1 0 C-0.09013999 45.09013999 -0.09013999 45.09013999 -3 48 C-4.35094982 48.09268999 -5.70667091 48.11747326 -7.06079102 48.11352539 C-7.92160782 48.11344986 -8.78242462 48.11337433 -9.66932678 48.11329651 C-10.60473801 48.10813522 -11.54014923 48.10297394 -12.50390625 48.09765625 C-13.45692123 48.0962413 -14.40993622 48.09482635 -15.39183044 48.09336853 C-18.44875165 48.08775152 -21.50560077 48.07519616 -24.5625 48.0625 C-26.62955624 48.05748719 -28.69661362 48.05292391 -30.76367188 48.04882812 C-35.84249833 48.03862558 -40.92116806 48.01905356 -46 48 C-46 41.73 -46 35.46 -46 29 C-45.67 29 -45.34 29 -45 29 C-44.67 34.61 -44.34 40.22 -44 46 C-30.8 46 -17.6 46 -4 46 C-3.67 40.72 -3.34 35.44 -3 30 C-2.76937476 27.28982765 -2.52391543 24.58074154 -2.24609375 21.875 C-2.11396484 20.57304688 -1.98183594 19.27109375 -1.84570312 17.9296875 C-1.71099609 16.63289063 -1.57628906 15.33609375 -1.4375 14 C-1.29724036 12.62763333 -1.15726557 11.25523753 -1.01757812 9.8828125 C-0.68116117 6.58824643 -0.3419451 3.29399606 0 0 Z " fill="#DA6144" transform="translate(54,63)"/>
<path d="M0 0 C8.3984375 -0.29296875 8.3984375 -0.29296875 11 0 C13.35119399 3.52679099 13.21443452 5.02879485 13.125 9.1875 C13.10695312 10.27417969 13.08890625 11.36085938 13.0703125 12.48046875 C13.03550781 13.72763672 13.03550781 13.72763672 13 15 C11.68 15 10.36 15 9 15 C9 11.04 9 7.08 9 3 C7.68 3.33 6.36 3.66 5 4 C4.67 7.63 4.34 11.26 4 15 C2.68 15 1.36 15 0 15 C0 10.05 0 5.1 0 0 Z " fill="#DB2323" transform="translate(188,93)"/>
<path d="M0 0 C1.32 0 2.64 0 4 0 C5.2527717 8.38909618 6.36011137 16.49737031 6 25 C4.35 24.67 2.7 24.34 1 24 C0.67 16.08 0.34 8.16 0 0 Z " fill="#B32C25" transform="translate(71,38)"/>
<path d="M0 0 C1.60875 -0.04125 3.2175 -0.0825 4.875 -0.125 C5.77992188 -0.14820312 6.68484375 -0.17140625 7.6171875 -0.1953125 C10 0 10 0 12 2 C12.1953125 5.0390625 12.1953125 5.0390625 12.125 8.625 C12.10695312 9.81351563 12.08890625 11.00203125 12.0703125 12.2265625 C12.04710937 13.14179687 12.02390625 14.05703125 12 15 C11.01 15 10.02 15 9 15 C8.67 11.04 8.34 7.08 8 3 C6.68 3.33 5.36 3.66 4 4 C3.67 7.63 3.34 11.26 3 15 C2.01 15 1.02 15 0 15 C0 10.05 0 5.1 0 0 Z " fill="#DB2423" transform="translate(243,93)"/>
<path d="M0 0 C2 2 2 2 2 5 C2.66 5 3.32 5 4 5 C5.62634726 8.25269451 5.18453471 11.804785 5.1875 15.375 C5.19974609 16.14328125 5.21199219 16.9115625 5.22460938 17.703125 C5.24272755 24.68466361 5.24272755 24.68466361 3 28 C2.34 28 1.68 28 1 28 C1.33 27.01 1.66 26.02 2 25 C2.07051114 22.26134713 2.09357765 19.54972412 2.0625 16.8125 C2.05798828 16.06291016 2.05347656 15.31332031 2.04882812 14.54101562 C2.03706354 12.69397617 2.01912865 10.84697787 2 9 C1.01 8.67 0.02 8.34 -1 8 C-0.85691406 9.48113281 -0.85691406 9.48113281 -0.7109375 10.9921875 C-0.60007812 12.27351563 -0.48921875 13.55484375 -0.375 14.875 C-0.25898437 16.15117188 -0.14296875 17.42734375 -0.0234375 18.7421875 C-0.01570313 19.81726563 -0.00796875 20.89234375 0 22 C-0.66 22.66 -1.32 23.32 -2 24 C-3 23 -3 23 -3.09765625 21.08227539 C-3.08605469 20.26235107 -3.07445313 19.44242676 -3.0625 18.59765625 C-3.05476563 17.70755859 -3.04703125 16.81746094 -3.0390625 15.90039062 C-3.01307459 14.01236905 -2.98703315 12.12434821 -2.9609375 10.23632812 C-2.95320313 9.34494141 -2.94546875 8.45355469 -2.9375 7.53515625 C-2.92589844 6.714104 -2.91429688 5.89305176 -2.90234375 5.04711914 C-2.86500135 2.93325887 -2.86500135 2.93325887 -4 1 C-2.125 0.375 -2.125 0.375 0 0 Z " fill="#F4B340" transform="translate(83,66)"/>
<path d="M0 0 C13.86 0.495 13.86 0.495 28 1 C30.5055149 11.02205962 30.15360966 21.72522064 30 32 C29.34 32 28.68 32 28 32 C27.97494385 31.26362305 27.9498877 30.52724609 27.92407227 29.76855469 C27.80795727 26.42886622 27.68530082 23.08944903 27.5625 19.75 C27.52318359 18.59113281 27.48386719 17.43226562 27.44335938 16.23828125 C27.40146484 15.12324219 27.35957031 14.00820312 27.31640625 12.859375 C27.27974854 11.83295898 27.24309082 10.80654297 27.20532227 9.74902344 C27.06024955 6.76045328 27.06024955 6.76045328 26 3 C17.42 3 8.84 3 0 3 C0 2.01 0 1.02 0 0 Z " fill="#E3AE5D" transform="translate(82,61)"/>
<path d="M0 0 C1.32 0 2.64 0 4 0 C4 6.93 4 13.86 4 21 C2.68 21 1.36 21 0 21 C0 14.07 0 7.14 0 0 Z " fill="#C92729" transform="translate(272,87)"/>
<path d="M0 0 C1.75559942 1.75559942 1.13221919 4.03582442 1.13671875 6.37109375 C1.13285156 7.07363281 1.12898438 7.77617188 1.125 8.5 C1.12886719 9.20253906 1.13273437 9.90507813 1.13671875 10.62890625 C1.12661378 15.87338622 1.12661378 15.87338622 0 17 C-1.68608966 17.07205511 -3.37500659 17.08386068 -5.0625 17.0625 C-5.98160156 17.05347656 -6.90070312 17.04445313 -7.84765625 17.03515625 C-8.55792969 17.02355469 -9.26820312 17.01195313 -10 17 C-10.0809723 14.56183415 -10.14046972 12.12635616 -10.1875 9.6875 C-10.21263672 8.99720703 -10.23777344 8.30691406 -10.26367188 7.59570312 C-10.33717911 2.52370373 -10.33717911 2.52370373 -8.71484375 0.00390625 C-5.79551401 -1.70513189 -3.16334734 -0.70296608 0 0 Z M-7 1 C-9.28062828 4.42094242 -9.21925007 5.68187222 -9.125 9.6875 C-9.10695313 10.68136719 -9.08890625 11.67523438 -9.0703125 12.69921875 C-9.04710938 13.45847656 -9.02390625 14.21773437 -9 15 C-6.03 15 -3.06 15 0 15 C0.08082094 13.04233719 0.13910778 11.08373272 0.1875 9.125 C0.22230469 8.03445312 0.25710937 6.94390625 0.29296875 5.8203125 C0.14794922 4.42425781 0.14794922 4.42425781 0 3 C-2.95377498 0.63019987 -2.95377498 0.63019987 -7 1 Z " fill="#F88C3E" transform="translate(31,54)"/>
<path d="M0 0 C0.33 0.99 0.66 1.98 1 3 C1.66 3 2.32 3 3 3 C4.33333333 8.33333333 4.33333333 8.33333333 2.8125 11.375 C1 13 1 13 -3 13 C-4.4783226 10.04335481 -4.06032783 7.25770263 -4 4 C-3.34 4 -2.68 4 -2 4 C-1.34 2.68 -0.68 1.36 0 0 Z " fill="#E9EBEF" transform="translate(27,24)"/>
<path d="M0 0 C0.66 0.33 1.32 0.66 2 1 C1.67 1.53625 1.34 2.0725 1 2.625 C-0.22699204 5.5391061 -0.14233286 7.86867708 0 11 C1.65 10.67 3.3 10.34 5 10 C5.66 8.02 6.32 6.04 7 4 C7.33 4 7.66 4 8 4 C8 6.64 8 9.28 8 12 C6.56465159 12.2226746 5.12654475 12.42761906 3.6875 12.625 C2.88699219 12.74101563 2.08648437 12.85703125 1.26171875 12.9765625 C-1 13 -1 13 -4 11 C-4.29296875 8.8359375 -4.29296875 8.8359375 -4.1875 6.375 C-4.16042969 5.55773437 -4.13335937 4.74046875 -4.10546875 3.8984375 C-4.05326172 2.95871094 -4.05326172 2.95871094 -4 2 C-2.125 0.9375 -2.125 0.9375 0 0 Z " fill="#DA2224" transform="translate(146,94)"/>
<path d="M0 0 C1.65 0 3.3 0 5 0 C4.67 4.95 4.34 9.9 4 15 C2.68 15 1.36 15 0 15 C0 10.05 0 5.1 0 0 Z " fill="#CD2526" transform="translate(188,93)"/>
<path d="M0 0 C1.32 0 2.64 0 4 0 C4 4.95 4 9.9 4 15 C2.68 15 1.36 15 0 15 C0 10.05 0 5.1 0 0 Z " fill="#C92628" transform="translate(182,93)"/>
<path d="M0 0 C6.06892629 -0.25287193 11.16200408 0.30167391 17 2 C16.67 5.3 16.34 8.6 16 12 C15.01 12.33 14.02 12.66 13 13 C12.67 9.7 12.34 6.4 12 3 C6.06 2.01 6.06 2.01 0 1 C0 0.67 0 0.34 0 0 Z " fill="#D45150" transform="translate(12,37)"/>
<path d="M0 0 C5.94 0.33 11.88 0.66 18 1 C18 1.66 18 2.32 18 3 C13.71 3 9.42 3 5 3 C5 4.98 5 6.96 5 9 C4.7525 8.38125 4.505 7.7625 4.25 7.125 C2.79371361 4.64931313 1.62187494 4.04874998 -1 3 C-0.67 2.01 -0.34 1.02 0 0 Z " fill="#DA6664" transform="translate(53,36)"/>
<path d="M0 0 C2.43914492 2.43914492 2.28662523 3.21446431 2.4140625 6.5703125 C2.45273438 7.46621094 2.49140625 8.36210938 2.53125 9.28515625 C2.57765625 10.69087891 2.57765625 10.69087891 2.625 12.125 C2.66367188 13.06988281 2.70234375 14.01476563 2.7421875 14.98828125 C2.83661346 17.32532375 2.92218394 19.66235501 3 22 C2.01 22.33 1.02 22.66 0 23 C0 15.41 0 7.82 0 0 Z " fill="#CF5652" transform="translate(10,42)"/>
<path d="M0 0 C0.33 0 0.66 0 1 0 C1 3.96 1 7.92 1 12 C-1.31 12 -3.62 12 -6 12 C-6.33 17.28 -6.66 22.56 -7 28 C-7.33 28 -7.66 28 -8 28 C-8.10854617 25.60293877 -8.18753157 23.21084162 -8.25 20.8125 C-8.28351562 20.13896484 -8.31703125 19.46542969 -8.3515625 18.77148438 C-8.42218223 15.15222309 -8.10553212 13.16889649 -6.171875 10.07421875 C-4 8 -4 8 -1 7 C-0.67 4.69 -0.34 2.38 0 0 Z " fill="#E35A3D" transform="translate(28,42)"/>
<path d="M0 0 C0.99 0 1.98 0 3 0 C3.09507063 6.43311296 3.15316726 12.65758005 2 19 C1.34 19 0.68 19 0 19 C0 12.73 0 6.46 0 0 Z " fill="#F11B1B" transform="translate(212,89)"/>
<path d="M0 0 C0.33 0 0.66 0 1 0 C1 1.98 1 3.96 1 6 C3.31 6 5.62 6 8 6 C8 6.33 8 6.66 8 7 C5.69 7 3.38 7 1 7 C0.67 8.65 0.34 10.3 0 12 C-1.32 12 -2.64 12 -4 12 C-3.52309796 10.37433394 -3.04340334 8.74948689 -2.5625 7.125 C-2.29566406 6.22007813 -2.02882813 5.31515625 -1.75390625 4.3828125 C-1 2 -1 2 0 0 Z " fill="#D52326" transform="translate(127,96)"/>
<path d="M0 0 C3.63 0 7.26 0 11 0 C10.01 0.495 10.01 0.495 9 1 C9 1.66 9 2.32 9 3 C7.35 3 5.7 3 4 3 C4 2.34 4 1.68 4 1 C3.01 1 2.02 1 1 1 C1 7.27 1 13.54 1 20 C0.67 20 0.34 20 0 20 C0 13.4 0 6.8 0 0 Z " fill="#E22D2C" transform="translate(211,88)"/>
<path d="M0 0 C0.66 0.66 1.32 1.32 2 2 C-0.93705131 2.22155127 -3.87380363 2.42774197 -6.8125 2.625 C-7.64587891 2.68945312 -8.47925781 2.75390625 -9.33789062 2.8203125 C-10.54155273 2.89765625 -10.54155273 2.89765625 -11.76953125 2.9765625 C-12.87711792 3.05511475 -12.87711792 3.05511475 -14.00708008 3.13525391 C-16 3 -16 3 -19 1 C-12.74534844 -0.13720937 -6.34210188 -0.56780578 0 0 Z " fill="#D97672" transform="translate(40,36)"/>
<path d="M0 0 C-0.33 1.65 -0.66 3.3 -1 5 C-2.98 5 -4.96 5 -7 5 C-7 3.35 -7 1.7 -7 0 C-2.25 -1.125 -2.25 -1.125 0 0 Z " fill="#E0D2D8" transform="translate(59,31)"/>
<path d="M0 0 C-0.33 0.99 -0.66 1.98 -1 3 C-1.99 3 -2.98 3 -4 3 C-5.01111093 6.04913228 -5.01111093 6.04913228 -4 9 C-5.32 8.34 -6.64 7.68 -8 7 C-7.625 4.0625 -7.625 4.0625 -7 1 C-4.53721199 -0.231394 -2.7204945 -0.07159196 0 0 Z " fill="#CC2529" transform="translate(235,99)"/>
<path d="M0 0 C0.99 0.33 1.98 0.66 3 1 C2.67 5.29 2.34 9.58 2 14 C1.34 14 0.68 14 0 14 C0 9.38 0 4.76 0 0 Z " fill="#DF201E" transform="translate(159,94)"/>
<path d="M0 0 C1.134375 0.020625 2.26875 0.04125 3.4375 0.0625 C3.7675 0.7225 4.0975 1.3825 4.4375 2.0625 C-2.1875 5.0625 -2.1875 5.0625 -5.5625 5.0625 C-4.43693182 0.07784091 -4.43693182 0.07784091 0 0 Z " fill="#CF282B" transform="translate(233.5625,92.9375)"/>
<path d="M0 0 C0.99 0.33 1.98 0.66 3 1 C2.67 1.66 2.34 2.32 2 3 C1.77377919 4.70363822 1.59111527 6.41328701 1.4375 8.125 C1.31181641 9.49011719 1.31181641 9.49011719 1.18359375 10.8828125 C1.12300781 11.58148438 1.06242188 12.28015625 1 13 C0.34 13 -0.32 13 -1 13 C-1.02686553 11.02090602 -1.04633375 9.04171029 -1.0625 7.0625 C-1.07410156 5.96035156 -1.08570313 4.85820313 -1.09765625 3.72265625 C-1 1 -1 1 0 0 Z " fill="#EB1C19" transform="translate(169,95)"/>
<path d="M0 0 C2.66710654 0.15240609 4.4505871 0.49364919 6.4453125 2.33203125 C10 6.50625 10 6.50625 10 9 C6.5767866 7.5834979 5.17515341 5.93172851 3 3 C2.01 2.67 1.02 2.34 0 2 C0 1.34 0 0.68 0 0 Z " fill="#E7E8EC" transform="translate(57,11)"/>
<path d="M0 0 C0.66 0 1.32 0 2 0 C2 3.3 2 6.6 2 10 C0.68 9.67 -0.64 9.34 -2 9 C-1.34 7.68 -0.68 6.36 0 5 C-1.32 4.67 -2.64 4.34 -4 4 C-3.01 3.67 -2.02 3.34 -1 3 C-0.67 2.01 -0.34 1.02 0 0 Z " fill="#E6191A" transform="translate(236,96)"/>
<path d="M0 0 C0.33 0 0.66 0 1 0 C1 2.64 1 5.28 1 8 C-0.45736087 8.19491452 -1.91594593 8.38069358 -3.375 8.5625 C-4.18710938 8.66691406 -4.99921875 8.77132812 -5.8359375 8.87890625 C-8 9 -8 9 -10 8 C-10 7.34 -10 6.68 -10 6 C-9.071875 6.20625 -8.14375 6.4125 -7.1875 6.625 C-3.84826598 7.36692966 -3.84826598 7.36692966 -1 5 C-0.27034634 2.43717258 -0.27034634 2.43717258 0 0 Z " fill="#E61918" transform="translate(153,98)"/>
<path d="M0 0 C1.32 0 2.64 0 4 0 C4 2.64 4 5.28 4 8 C3.01 8.33 2.02 8.66 1 9 C0.67 6.03 0.34 3.06 0 0 Z " fill="#DA4848" transform="translate(24,41)"/>
<path d="M0 0 C0.99 0.33 1.98 0.66 3 1 C2.3125 3.4375 2.3125 3.4375 1 6 C-1.625 6.8125 -1.625 6.8125 -4 7 C-4 4 -4 4 -2 1.8125 C-1.34 1.214375 -0.68 0.61625 0 0 Z " fill="#EBD0D6" transform="translate(28,30)"/>
<path d="M0 0 C3.3 0 6.6 0 10 0 C9.67 1.98 9.34 3.96 9 6 C8.34 5.67 7.68 5.34 7 5 C7.33 4.34 7.66 3.68 8 3 C6.68 3.33 5.36 3.66 4 4 C4 3.01 4 2.02 4 1 C2.68 0.67 1.36 0.34 0 0 Z " fill="#B93838" transform="translate(71,37)"/>
<path d="M0 0 C0.33 0 0.66 0 1 0 C1.05399736 1.45792884 1.09279177 2.91642712 1.125 4.375 C1.14820313 5.18710937 1.17140625 5.99921875 1.1953125 6.8359375 C1 9 1 9 -1 11 C-2.25 3.375 -2.25 3.375 0 0 Z " fill="#EAE3E5" transform="translate(35,26)"/>
<path d="M0 0 C0.99 0.33 1.98 0.66 3 1 C2.67 1.99 2.34 2.98 2 4 C-1.375 4.625 -1.375 4.625 -5 5 C-5.66 4.34 -6.32 3.68 -7 3 C-5.02 3 -3.04 3 -1 3 C-0.67 2.01 -0.34 1.02 0 0 Z " fill="#C62E2E" transform="translate(267,104)"/>
<path d="M0 0 C1.32 0 2.64 0 4 0 C4 0.99 4 1.98 4 3 C3.01 3.33 2.02 3.66 1 4 C1 5.65 1 7.3 1 9 C0.67 8.34 0.34 7.68 0 7 C-0.66 7 -1.32 7 -2 7 C-1.34 4.69 -0.68 2.38 0 0 Z " fill="#CB2728" transform="translate(130,88)"/>
<path d="M0 0 C0.66 0.33 1.32 0.66 2 1 C2 4.3 2 7.6 2 11 C1.34 11 0.68 11 0 11 C-1.125 3.375 -1.125 3.375 0 0 Z " fill="#F01814" transform="translate(252,95)"/>
<path d="M0 0 C1.74627478 2.61941217 2.38722388 4.03824877 3 7 C1.68 7 0.36 7 -1 7 C-1.625 4.625 -1.625 4.625 -2 2 C-1.34 1.34 -0.68 0.68 0 0 Z " fill="#CC2726" transform="translate(138,101)"/>
<path d="M0 0 C3 3.625 3 3.625 3 7 C1.35 7 -0.3 7 -2 7 C-1.34 4.69 -0.68 2.38 0 0 Z " fill="#DCC9CD" transform="translate(37,29)"/>
<path d="M0 0 C0.99 0.33 1.98 0.66 3 1 C2.34 4.3 1.68 7.6 1 11 C0.67 11 0.34 11 0 11 C0 7.37 0 3.74 0 0 Z " fill="#EF1817" transform="translate(244,94)"/>
<path d="M0 0 C0.99 0 1.98 0 3 0 C4.20272819 2.40545638 4.10071472 3.94996953 4.0625 6.625 C4.05347656 7.44226563 4.04445312 8.25953125 4.03515625 9.1015625 C4.02355469 9.72804688 4.01195312 10.35453125 4 11 C3.67 11 3.34 11 3 11 C2.87625 9.9275 2.7525 8.855 2.625 7.75 C2.10356064 4.62136385 1.59911746 2.66519576 0 0 Z " fill="#E31B1B" transform="translate(174,94)"/>
<path d="M0 0 C2.31 0 4.62 0 7 0 C6.01 0.495 6.01 0.495 5 1 C5 1.66 5 2.32 5 3 C3.35 3 1.7 3 0 3 C0 2.01 0 1.02 0 0 Z " fill="#C92E32" transform="translate(215,88)"/>
<path d="M0 0 C1.32 0 2.64 0 4 0 C3.67 1.32 3.34 2.64 3 4 C2.01 3.67 1.02 3.34 0 3 C0 2.01 0 1.02 0 0 Z " fill="#AF2736" transform="translate(182,88)"/>
</svg>
