<?xml version="1.0" encoding="UTF-8"?>
<svg version="1.1" xmlns="http://www.w3.org/2000/svg" width="91" height="91">
<path d="M0 0 C1.27746094 -0.02835937 2.55492187 -0.05671875 3.87109375 -0.0859375 C8.94261781 0.54733217 12.03161349 2.63295672 15.375 6.4375 C17.57314385 10.02394523 17.6733096 12.95618367 17.625 17.0625 C17.61597656 18.05636719 17.60695312 19.05023437 17.59765625 20.07421875 C17.58605469 20.83347656 17.57445312 21.59273437 17.5625 22.375 C20.8625 22.375 24.1625 22.375 27.5625 22.375 C28.0575 31.285 28.0575 31.285 28.5625 40.375 C30.81900391 40.46587891 30.81900391 40.46587891 33.12109375 40.55859375 C35.08073989 40.64298043 37.04037476 40.72762935 39 40.8125 C39.99322266 40.85181641 40.98644531 40.89113281 42.00976562 40.93164062 C43.42612305 40.99448242 43.42612305 40.99448242 44.87109375 41.05859375 C45.74564209 41.09525146 46.62019043 41.13190918 47.52124023 41.16967773 C49.5625 41.375 49.5625 41.375 50.5625 42.375 C50.79188113 44.25358814 50.95808838 46.13995669 51.09765625 48.02734375 C51.18466797 49.19716797 51.27167969 50.36699219 51.36132812 51.57226562 C51.44833984 52.80654297 51.53535156 54.04082031 51.625 55.3125 C51.76131836 57.11170898 51.76131836 57.11170898 51.90039062 58.94726562 C52.3985325 65.8126344 52.5625 72.45783523 52.5625 79.375 C25.1725 79.375 -2.2175 79.375 -30.4375 79.375 C-30.4375 62.13592023 -30.4375 62.13592023 -30 53.72265625 C-29.95560791 52.81164658 -29.91121582 51.9006369 -29.86547852 50.96202087 C-29.72623809 48.1203323 -29.58198341 45.27892628 -29.4375 42.4375 C-29.34080955 40.48243848 -29.24445318 38.5273604 -29.1484375 36.57226562 C-28.91530068 31.83964453 -28.67767455 27.10726894 -28.4375 22.375 C-24.8075 22.375 -21.1775 22.375 -17.4375 22.375 C-17.52451172 20.96347656 -17.52451172 20.96347656 -17.61328125 19.5234375 C-18.02789816 8.08001083 -18.02789816 8.08001083 -15.25 4.625 C-10.31252095 0.67501676 -6.27875296 0.06323014 0 0 Z M-11.5625 7.125 C-14.46335213 10.60602256 -14.56516758 13.6936043 -14.5 18.125 C-14.49097656 18.92421875 -14.48195313 19.7234375 -14.47265625 20.546875 C-14.46105469 21.15015625 -14.44945312 21.7534375 -14.4375 22.375 C-12.7875 22.375 -11.1375 22.375 -9.4375 22.375 C-9.38851563 21.56675781 -9.33953125 20.75851563 -9.2890625 19.92578125 C-9.21429687 18.85714844 -9.13953125 17.78851563 -9.0625 16.6875 C-8.99289063 15.63175781 -8.92328125 14.57601563 -8.8515625 13.48828125 C-8.44989911 10.46822731 -7.69680981 8.13421946 -6.4375 5.375 C-9.51034146 5.05714637 -9.51034146 5.05714637 -11.5625 7.125 Z M6.5625 5.375 C6.71589844 5.89578125 6.86929688 6.4165625 7.02734375 6.953125 C7.70232511 10.00778515 7.90661118 13.00515971 8.125 16.125 C8.20878906 17.29546875 8.29257812 18.4659375 8.37890625 19.671875 C8.43949219 20.56390625 8.50007813 21.4559375 8.5625 22.375 C10.2125 22.375 11.8625 22.375 13.5625 22.375 C13.9866426 15.16381339 13.9866426 15.16381339 12.3125 8.25 C10.3937917 6.19424111 9.33063126 5.66135841 6.5625 5.375 Z M-0.4375 5.375 C-2.80405178 7.03158625 -4.00791593 7.9221347 -5.4375 10.375 C-5.88322896 14.40753609 -5.72751875 18.33407202 -5.4375 22.375 C-2.1375 22.375 1.1625 22.375 4.5625 22.375 C5.36492223 15.17763501 5.36492223 15.17763501 3.44921875 8.46484375 C1.96001349 6.95589304 1.96001349 6.95589304 -0.4375 5.375 Z " fill="#EB423E" transform="translate(34.4375,4.625)"/>
<path d="M0 0 C1.35967896 -0.00676758 1.35967896 -0.00676758 2.74682617 -0.01367188 C9.06349958 0.00099958 9.06349958 0.00099958 10.1875 1.125 C10.41688113 3.00358814 10.58308838 4.88995669 10.72265625 6.77734375 C10.85317383 8.53208008 10.85317383 8.53208008 10.98632812 10.32226562 C11.1168457 12.17368164 11.1168457 12.17368164 11.25 14.0625 C11.34087891 15.26197266 11.43175781 16.46144531 11.52539062 17.69726562 C12.0235325 24.5626344 12.1875 31.20783523 12.1875 38.125 C-3.6525 38.125 -19.4925 38.125 -35.8125 38.125 C-35.8125 24.625 -35.8125 24.625 -35.375 19.484375 C-35.28476562 18.39511719 -35.19453125 17.30585937 -35.1015625 16.18359375 C-35.00617187 15.09175781 -34.91078125 13.99992187 -34.8125 12.875 C-34.71710937 11.73675781 -34.62171875 10.59851563 -34.5234375 9.42578125 C-34.29088836 6.65844648 -34.05385347 3.89157835 -33.8125 1.125 C-22.5433739 0.51153664 -11.28756431 0.02359153 0 0 Z " fill="#F6B031" transform="translate(74.8125,45.875)"/>
<path d="M0 0 C1.27746094 -0.02835937 2.55492188 -0.05671875 3.87109375 -0.0859375 C8.94261781 0.54733217 12.03161349 2.63295672 15.375 6.4375 C17.57314385 10.02394523 17.6733096 12.95618367 17.625 17.0625 C17.61597656 18.05636719 17.60695312 19.05023437 17.59765625 20.07421875 C17.58605469 20.83347656 17.57445312 21.59273437 17.5625 22.375 C16.2425 22.375 14.9225 22.375 13.5625 22.375 C13.51351562 21.62734375 13.46453125 20.8796875 13.4140625 20.109375 C13.33929688 19.12453125 13.26453125 18.1396875 13.1875 17.125 C13.11789063 16.15046875 13.04828125 15.1759375 12.9765625 14.171875 C12.57273456 11.44413154 12.03454955 9.68822072 10.5625 7.375 C8.5289052 6.10695434 8.5289052 6.10695434 6.5625 5.375 C6.88847168 5.93670898 7.21444336 6.49841797 7.55029297 7.07714844 C8.68262031 9.64768991 8.79363622 11.34637519 8.7578125 14.140625 C8.75136719 15.03007812 8.74492188 15.91953125 8.73828125 16.8359375 C8.72152344 17.75632812 8.70476563 18.67671875 8.6875 19.625 C8.67847656 20.56085937 8.66945313 21.49671875 8.66015625 22.4609375 C8.63663636 24.76588657 8.60376853 27.0703116 8.5625 29.375 C7.5725 29.375 6.5825 29.375 5.5625 29.375 C5.52286133 28.82038086 5.48322266 28.26576172 5.44238281 27.69433594 C5.25124309 25.16939077 5.03217628 22.64761593 4.8125 20.125 C4.750625 19.25230469 4.68875 18.37960938 4.625 17.48046875 C4.17415672 12.21599166 4.17415672 12.21599166 1.484375 7.765625 C0.85015625 7.30671875 0.2159375 6.8478125 -0.4375 6.375 C-3.18165095 8.63618038 -4.33160286 9.85094492 -5.046875 13.390625 C-5.11648437 14.99164062 -5.11648437 14.99164062 -5.1875 16.625 C-5.24421875 17.70265625 -5.3009375 18.7803125 -5.359375 19.890625 C-5.38515625 20.71046875 -5.4109375 21.5303125 -5.4375 22.375 C-6.7575 22.375 -8.0775 22.375 -9.4375 22.375 C-9.49173638 20.45864783 -9.53039963 18.54185075 -9.5625 16.625 C-9.58570313 15.55765625 -9.60890625 14.4903125 -9.6328125 13.390625 C-9.44237687 10.45029894 -8.96420104 8.85138122 -7.4375 6.375 C-10.1874639 7.3833201 -11.23509112 7.96094126 -12.54443359 10.6394043 C-13.43777531 13.37584332 -13.74604233 15.59039995 -13.8515625 18.45703125 C-13.89023437 19.38837891 -13.92890625 20.31972656 -13.96875 21.27929688 C-13.9996875 22.23900391 -14.030625 23.19871094 -14.0625 24.1875 C-14.10117187 25.16654297 -14.13984375 26.14558594 -14.1796875 27.15429688 C-14.27360816 29.56101374 -14.35928201 31.96773012 -14.4375 34.375 C-15.4275 34.375 -16.4175 34.375 -17.4375 34.375 C-17.58320522 30.16703314 -17.67171087 25.95971834 -17.75 21.75 C-17.79189453 20.56019531 -17.83378906 19.37039062 -17.87695312 18.14453125 C-18.01514751 8.24981323 -18.01514751 8.24981323 -15.23046875 4.6640625 C-10.22359171 0.56052412 -6.43125078 0.06476587 0 0 Z " fill="#E8EBEF" transform="translate(34.4375,4.625)"/>
<path d="M0 0 C8.49609375 -0.09765625 8.49609375 -0.09765625 11 0 C12.75379406 1.75379406 12.35843052 4.26246816 12.53515625 6.65234375 C12.62216797 7.82216797 12.70917969 8.99199219 12.79882812 10.19726562 C12.88583984 11.43154297 12.97285156 12.66582031 13.0625 13.9375 C13.15337891 15.13697266 13.24425781 16.33644531 13.33789062 17.57226562 C13.83347508 24.40238818 14.09735869 31.15243862 14 38 C10.04 38 6.08 38 2 38 C1.66150478 33.72952016 1.32906758 29.45870824 1 25.1875 C0.90460938 23.99189453 0.80921875 22.79628906 0.7109375 21.56445312 C0.16115962 14.35843595 -0.13319338 7.2266658 0 0 Z " fill="#E7A42C" transform="translate(73,46)"/>
<path d="M0 0 C3.96 0 7.92 0 12 0 C12.33 6.6 12.66 13.2 13 20 C9.04 20 5.08 20 1 20 C0.11744572 13.2705236 -0.08592955 6.78843417 0 0 Z " fill="#D0332F" transform="translate(50,27)"/>
<path d="M0 0 C0.66 0 1.32 0 2 0 C2.06058594 1.07121094 2.12117188 2.14242187 2.18359375 3.24609375 C2.26798537 4.64324391 2.35263406 6.04037857 2.4375 7.4375 C2.47681641 8.14455078 2.51613281 8.85160156 2.55664062 9.58007812 C2.47624438 13.08690419 2.47624438 13.08690419 4 16 C7.00331018 16.14193337 9.99217134 16.04236378 13 16 C13 11.05 13 6.1 13 1 C13.99 0.67 14.98 0.34 16 0 C16.1081866 2.58445773 16.18737237 5.16437352 16.25 7.75 C16.30027344 8.84441406 16.30027344 8.84441406 16.3515625 9.9609375 C16.41572237 13.4897303 16.30700317 15.5696534 14.23046875 18.48046875 C11.50282938 20.33870293 9.25502974 20.64497402 5.97265625 20.41796875 C4 20 4 20 1 18.375 C-2.2080754 12.96137275 -1.56329786 7.14799374 -1 1 C-0.67 0.67 -0.34 0.34 0 0 Z " fill="#EAE6D9" transform="translate(49,54)"/>
<path d="M0 0 C2.375 0.6875 2.375 0.6875 3.375 1.6875 C3.44744053 3.70714199 3.45877188 5.72917124 3.4375 7.75 C3.42847656 8.85472656 3.41945313 9.95945312 3.41015625 11.09765625 C3.39855469 11.95230469 3.38695312 12.80695312 3.375 13.6875 C0.405 13.6875 -2.565 13.6875 -5.625 13.6875 C-5.70582094 11.72983719 -5.76410778 9.77123272 -5.8125 7.8125 C-5.84730469 6.72195312 -5.88210938 5.63140625 -5.91796875 4.5078125 C-5.82128906 3.57710937 -5.72460938 2.64640625 -5.625 1.6875 C-2.625 -0.3125 -2.625 -0.3125 0 0 Z " fill="#F5A631" transform="translate(19.625,39.3125)"/>
<path d="M0 0 C5.7200759 -0.45760607 8.55296727 0.36151868 13 4 C16.56669978 8.05865836 17.12498126 11.37659285 17.0625 16.6875 C17.05347656 17.68136719 17.04445313 18.67523437 17.03515625 19.69921875 C17.02355469 20.45847656 17.01195313 21.21773437 17 22 C15.68 22 14.36 22 13 22 C12.95101562 21.25234375 12.90203125 20.5046875 12.8515625 19.734375 C12.77679688 18.74953125 12.70203125 17.7646875 12.625 16.75 C12.55539063 15.77546875 12.48578125 14.8009375 12.4140625 13.796875 C11.99741771 10.98255734 11.63650694 9.3150586 10 7 C7.61477059 5.44554733 7.61477059 5.44554733 4.875 4.25 C3.96492188 3.82203125 3.05484375 3.3940625 2.1171875 2.953125 C1.06917969 2.48132813 1.06917969 2.48132813 0 2 C0 1.34 0 0.68 0 0 Z " fill="#DADDDF" transform="translate(35,5)"/>
<path d="M0 0 C1.65 0 3.3 0 5 0 C5.33 6.6 5.66 13.2 6 20 C4.35 20 2.7 20 1 20 C0.202163 13.30386804 -0.12910853 6.74233419 0 0 Z " fill="#D0342F" transform="translate(57,27)"/>
<path d="M0 0 C1.2065625 0.0309375 1.2065625 0.0309375 2.4375 0.0625 C2.4375 0.7225 2.4375 1.3825 2.4375 2.0625 C1.79296875 2.63484375 1.1484375 3.2071875 0.484375 3.796875 C-2.13707754 6.69848277 -2.14481835 8.45582215 -2.3125 12.3125 C-2.36921875 13.39015625 -2.4259375 14.4678125 -2.484375 15.578125 C-2.51015625 16.39796875 -2.5359375 17.2178125 -2.5625 18.0625 C-3.8825 18.0625 -5.2025 18.0625 -6.5625 18.0625 C-6.64410748 16.16739301 -6.70196459 14.27125496 -6.75 12.375 C-6.78480469 11.31925781 -6.81960937 10.26351563 -6.85546875 9.17578125 C-6.43794942 4.73894247 -4.86196669 0.11858455 0 0 Z " fill="#D8DBDC" transform="translate(31.5625,8.9375)"/>
<path d="M0 0 C0.99 0 1.98 0 3 0 C3.797837 6.69613196 4.12910853 13.25766581 4 20 C3.01 20 2.02 20 1 20 C0.67 13.4 0.34 6.8 0 0 Z " fill="#AB2B27" transform="translate(54,27)"/>
<path d="M0 0 C0.33 0 0.66 0 1 0 C1 3.96 1 7.92 1 12 C0.01 12 -0.98 12 -2 12 C-2 10.35 -2 8.7 -2 7 C-1.34 7 -0.68 7 0 7 C0 4.69 0 2.38 0 0 Z " fill="#DFD5D4" transform="translate(19,27)"/>
</svg>
